<?xml version="1.0" standalone="no"?>
<!DOCTYPE svg PUBLIC "-//W3C//DTD SVG 20010904//EN"
 "http://www.w3.org/TR/2001/REC-SVG-20010904/DTD/svg10.dtd">
<svg version="1.0" xmlns="http://www.w3.org/2000/svg"
 width="24" height="24" viewBox="0 0 24 24" >

<g transform="translate(0.000000,24.000000) scale(0.100000,-0.100000)"
fill="#037971" stroke="none">
<path d="M30 120 l0 -100 90 0 90 0 0 68 c0 64 -2 70 -33 100 -29 28 -39 32
-90 32 l-57 0 0 -100z m100 50 c0 -27 3 -30 30 -30 29 0 30 -1 30 -50 l0 -50
-70 0 -70 0 0 80 0 80 40 0 c38 0 40 -2 40 -30z m40 5 c10 -12 10 -15 -4 -15
-9 0 -16 7 -16 15 0 8 2 15 4 15 2 0 9 -7 16 -15z"/>
</g>
</svg>
